<svg width="20" height="20" viewBox="0 0 20 20" fill="none" xmlns="http://www.w3.org/2000/svg">
<g id="wpf:medical-doctor" clip-path="url(#clip0_722_371)">
<path id="Vector" d="M10.0001 0C8.38467 0 7.41775 0.246154 6.80313 0.553077C6.49544 0.706923 6.27698 0.868462 6.13006 1.03385C6.02918 1.15674 5.94795 1.29453 5.88929 1.44231C5.86517 1.50409 5.84914 1.56872 5.84159 1.63462L5.43236 6.89923C5.42698 6.93154 5.43775 6.98385 5.43236 7.01923L5.38467 7.54846C5.38019 7.59631 5.38019 7.64446 5.38467 7.69231C5.38467 10.2308 7.4616 12.3077 10.0001 12.3077C12.5385 12.3077 14.6154 10.2308 14.6154 7.69231V7.57231C14.6156 7.56436 14.6156 7.55641 14.6154 7.54846L14.1585 1.63462C14.151 1.56872 14.1349 1.50409 14.1108 1.44231C14.1108 1.44231 14.0177 1.19923 13.8701 1.03385C13.7231 0.867692 13.5047 0.706154 13.197 0.553077C12.5824 0.245385 11.6154 0 10.0001 0ZM10.0001 12.3077C4.92313 12.3077 0.769287 14.6969 0.769287 16.8508V20H19.2308V16.8508C19.2308 14.8046 15.4754 12.5508 10.7454 12.3315C10.4973 12.3152 10.2487 12.3072 10.0001 12.3077ZM10.0001 1.53846C11.4616 1.53846 12.1916 1.76923 12.5001 1.92308C12.6031 1.97462 12.6154 1.99462 12.6447 2.01923L12.957 5.96154C12.2493 6.00462 11.2847 6.15385 10.0001 6.15385C8.71544 6.15385 7.7516 6.00462 7.04313 5.96154L7.35544 2.01923C7.3839 1.99462 7.39698 1.97462 7.50006 1.92308C7.80852 1.76923 8.53852 1.53846 10.0001 1.53846ZM9.37467 2.30769V3.22154H8.4616V4.47154H9.37544V5.38462H10.6247V4.47077H11.5385V3.22154H10.6247V2.30769H9.37467ZM7.69236 14.0385L9.6639 18.4615H2.30775V16.8508C2.30775 16.2777 4.26929 14.5992 7.69236 14.0385ZM12.3077 14.0385C15.7308 14.6 17.6924 16.2777 17.6924 16.8508V18.4615H10.3362L12.3077 14.0385Z" fill="#68BB6B"/>
</g>
<defs>
<clipPath id="clip0_722_371">
<rect width="20" height="20" fill="white"/>
</clipPath>
</defs>
</svg>
