<svg width="40" height="40" viewBox="0 0 40 40" fill="none" xmlns="http://www.w3.org/2000/svg">
<g id="healthcare-hospital-medical-2-svgrepo-com 1">
<g id="Group">
<g id="Group_2">
<g id="Group_3">
<path id="Vector" d="M22.5469 13.7969H17.4531V17.1797H14.0703V22.2812H17.4531V25.6641H22.5469V22.2812H25.9375V17.1797H22.5469V13.7969Z" fill="#96DE99"/>
</g>
<path id="Vector_2" d="M34.4687 8.92188C33.9765 9.03125 33.4687 9.08594 32.9453 9.08594C29.164 9.08594 26.0937 6.07031 26.0937 2.34375H13.8984C13.8984 6.0625 10.8281 9.08594 7.04682 9.08594C6.52339 9.08594 6.01557 9.03125 5.52339 8.92188C1.08589 27.6562 19.9999 37.6562 19.9999 37.6562C19.9999 37.6562 38.914 27.6562 34.4687 8.92188ZM26.5234 28.2656C24.1406 31.0312 21.5703 32.9453 20.0078 33.9844C18.4062 32.9219 15.7578 30.9453 13.3593 28.125C10.1015 24.2891 8.32026 20.1562 8.03901 15.7891H10.4218C10.7265 15.7891 10.9687 15.5469 10.9687 15.2422C10.9687 14.9375 10.7265 14.6953 10.4218 14.6953H7.99995C7.99214 13.8594 8.03901 13.0234 8.14057 12.1719C12.0624 11.75 15.3124 9.07812 16.5234 5.48437H23.4843C24.7031 9.07031 27.9531 11.75 31.8671 12.1719C32.5468 17.9453 30.7578 23.3516 26.5234 28.2656Z" fill="#68BB6B"/>
</g>
</g>
</g>
</svg>
