<svg width="20" height="21" viewBox="0 0 20 21" fill="none" xmlns="http://www.w3.org/2000/svg">
<g id="octicon:mail-24">
<path id="Vector" d="M1.45833 3H18.5417C19.3467 3 20 3.65333 20 4.45833V16.125C20 16.5118 19.8464 16.8827 19.5729 17.1562C19.2994 17.4297 18.9284 17.5833 18.5417 17.5833H1.45833C1.07156 17.5833 0.700626 17.4297 0.427136 17.1562C0.153645 16.8827 0 16.5118 0 16.125L0 4.45833C0 3.65333 0.653333 3 1.45833 3ZM1.25 6.67667V16.125C1.25 16.24 1.34333 16.3333 1.45833 16.3333H18.5417C18.5969 16.3333 18.6499 16.3114 18.689 16.2723C18.7281 16.2332 18.75 16.1803 18.75 16.125V6.67667L10.8167 12.0375C10.3233 12.3708 9.67667 12.3708 9.18333 12.0375L1.25 6.67667ZM1.25 4.45833V5.16833L9.88333 11.0017C9.91778 11.025 9.95842 11.0374 10 11.0374C10.0416 11.0374 10.0822 11.025 10.1167 11.0017L18.75 5.16833V4.45833C18.75 4.40308 18.7281 4.35009 18.689 4.31102C18.6499 4.27195 18.5969 4.25 18.5417 4.25H1.45833C1.40308 4.25 1.35009 4.27195 1.31102 4.31102C1.27195 4.35009 1.25 4.40308 1.25 4.45833Z" fill="#68BB6B"/>
</g>
</svg>
