<svg width="20" height="21" viewBox="0 0 20 21" fill="none" xmlns="http://www.w3.org/2000/svg">
<path d="M10.8333 11.1078C11.5208 11.1078 12.1095 10.9081 12.5995 10.5086C13.0895 10.1091 13.3341 9.62944 13.3333 9.06961C13.3333 8.5091 13.0883 8.0291 12.5983 7.62961C12.1083 7.23012 11.5199 7.03072 10.8333 7.0314C10.1458 7.0314 9.557 7.23114 9.067 7.63063C8.577 8.03012 8.33242 8.50978 8.33325 9.06961C8.33325 9.63012 8.57825 10.1101 9.06825 10.5096C9.55825 10.9091 10.1466 11.1085 10.8333 11.1078ZM10.8333 18.5983C13.3749 16.6959 15.2603 14.9675 16.4895 13.4131C17.7187 11.8586 18.3333 10.4787 18.3333 9.27344C18.3333 7.42206 17.6091 5.9063 16.1608 4.72617C14.7124 3.54605 12.9366 2.95564 10.8333 2.95496C8.72909 2.95496 6.95284 3.54537 5.5045 4.72617C4.05617 5.90698 3.33242 7.42274 3.33325 9.27344C3.33325 10.4794 3.94784 11.8596 5.177 13.4141C6.40617 14.9686 8.29159 16.6966 10.8333 18.5983ZM10.8333 20.9167C10.6666 20.9167 10.4999 20.8913 10.3333 20.8403C10.1666 20.7894 10.0208 20.7214 9.89575 20.6365C6.85409 18.4454 4.58325 16.4113 3.08325 14.5341C1.58325 12.6569 0.833252 10.9033 0.833252 9.27344C0.833252 6.72567 1.83867 4.69594 3.8495 3.18426C5.86034 1.67259 8.18825 0.916748 10.8333 0.916748C13.4791 0.916748 15.8074 1.67259 17.8183 3.18426C19.8291 4.69594 20.8341 6.72567 20.8333 9.27344C20.8333 10.904 20.0833 12.6579 18.5833 14.5351C17.0833 16.4123 14.8124 18.4461 11.7708 20.6365C11.6458 20.7214 11.4999 20.7894 11.3333 20.8403C11.1666 20.8913 10.9999 20.9167 10.8333 20.9167Z" fill="#68BB6B"/>
</svg>
