<svg width="20" height="21" viewBox="0 0 20 21" fill="none" xmlns="http://www.w3.org/2000/svg">
<path id="Vector" d="M12.2231 1.74632C12.2663 1.58847 12.3697 1.45392 12.5112 1.3717C12.6527 1.28948 12.8209 1.2662 12.9794 1.30686C14.4688 1.7072 15.8269 2.49198 16.9174 3.58255C18.008 4.67312 18.7928 6.03118 19.1931 7.52062C19.2147 7.59914 19.2204 7.68116 19.2098 7.76191C19.1993 7.84265 19.1729 7.92049 19.132 7.99089C19.0911 8.06129 19.0365 8.12284 18.9716 8.17194C18.9066 8.22105 18.8326 8.25673 18.7537 8.2769L18.6004 8.29734C18.4646 8.29712 18.3327 8.25185 18.2255 8.16862C18.1182 8.08539 18.0416 7.9689 18.0076 7.83744C17.661 6.55733 16.9852 5.39032 16.0474 4.45255C15.1097 3.51479 13.9427 2.83898 12.6626 2.49238C12.5069 2.44918 12.3742 2.34726 12.2922 2.20809C12.2102 2.06893 12.1854 1.90338 12.2231 1.74632ZM11.8143 5.65036C12.5403 5.8491 13.202 6.23353 13.7342 6.76577C14.2665 7.29801 14.6509 7.95971 14.8496 8.6857C14.8836 8.81716 14.9602 8.93364 15.0675 9.01688C15.1748 9.10011 15.3066 9.14538 15.4424 9.1456L15.5957 9.12516C15.7521 9.07973 15.885 8.97583 15.9669 8.83501C16.0487 8.69418 16.0731 8.52726 16.0352 8.36888C15.7826 7.43356 15.2893 6.58083 14.6042 5.89579C13.9192 5.21074 13.0664 4.71735 12.1311 4.46484C11.9727 4.42686 11.8058 4.45132 11.665 4.53315C11.5242 4.61498 11.4203 4.74789 11.3748 4.9043C11.3344 5.0615 11.358 5.2283 11.4404 5.36815C11.5228 5.508 11.6572 5.60948 11.8143 5.65036ZM19.9903 15.6762C19.819 17.0084 19.1685 18.2328 18.1604 19.1205C17.1524 20.0082 15.8556 20.4986 14.5124 20.5C6.51013 20.5 0 13.9899 0 5.98762C0.00144456 4.64439 0.491822 3.34763 1.37953 2.33955C2.26725 1.33147 3.49158 0.681022 4.82383 0.509706C5.13039 0.473819 5.44034 0.538026 5.70741 0.692745C5.97448 0.847463 6.18436 1.0844 6.30573 1.36818L8.35995 6.16136C8.45313 6.37823 8.49161 6.61467 8.47201 6.8499C8.45241 7.08513 8.37532 7.31194 8.24753 7.5104L6.54079 10.1063C6.52392 10.1356 6.5142 10.1684 6.51243 10.2021C6.51065 10.2359 6.51687 10.2696 6.53057 10.3005C7.3156 11.91 8.61847 13.2093 10.2302 13.9899C10.2615 14.0039 10.2959 14.0094 10.3301 14.0058C10.3642 14.0022 10.3967 13.9897 10.4244 13.9694L12.9896 12.2627C13.1861 12.1307 13.4127 12.0502 13.6484 12.0288C13.8842 12.0074 14.1216 12.0456 14.3386 12.1401L19.1318 14.1943C19.4156 14.3156 19.6525 14.5255 19.8073 14.7926C19.962 15.0597 20.0262 15.3696 19.9903 15.6762ZM18.7741 15.5229C18.7776 15.4803 18.7677 15.4376 18.7457 15.4009C18.7237 15.3643 18.6907 15.3354 18.6515 15.3185L13.8583 13.2642C13.8266 13.2521 13.7925 13.2476 13.7588 13.2511C13.725 13.2547 13.6926 13.2662 13.6641 13.2847L11.1091 14.9914C10.9023 15.1273 10.6641 15.208 10.4172 15.2259C10.1704 15.2438 9.92306 15.1983 9.69877 15.0936C7.83978 14.1886 6.33627 12.6887 5.42681 10.8319C5.3206 10.6103 5.27327 10.365 5.28938 10.1198C5.30549 9.87454 5.3845 9.63759 5.51879 9.43176L7.21531 6.83588C7.23556 6.8082 7.24812 6.77565 7.25171 6.74154C7.2553 6.70744 7.24979 6.67299 7.23575 6.6417L5.18153 1.84852C5.16586 1.81259 5.14018 1.78193 5.10757 1.76019C5.07495 1.73844 5.03677 1.72653 4.99757 1.72588H4.97713C3.94202 1.86195 2.99141 2.36886 2.30166 3.15258C1.61191 3.9363 1.22986 4.94361 1.2264 5.98762C1.22911 9.51045 2.62974 12.8882 5.12076 15.3792C7.61178 17.8703 10.9895 19.2709 14.5124 19.2736C15.5564 19.2701 16.5637 18.8881 17.3474 18.1983C18.1311 17.5086 18.6381 16.558 18.7741 15.5229Z" fill="#68BB6B"/>
</svg>
